solid AutoSave_bht-002_box
facet normal 1.0 3.6612452661242445e-15 -5.4375306741107125e-14
  outer loop
    vertex 1141.2758007277052 1171.1711756580423 100.00000003002913
    vertex 1141.2758007277057 1097.1711756580423 102.00000003002911
    vertex 1141.2758007277057 1097.1711756580423 100.00000003002913
  endloop
endfacet
facet normal 1.0 3.6612452661242445e-15 -5.4375306741107125e-14
  outer loop
    vertex 1141.2758007277057 1097.1711756580423 102.00000003002911
    vertex 1141.2758007277052 1171.1711756580423 100.00000003002913
    vertex 1141.2758007277057 1101.171175658042 102.00000003002911
  endloop
endfacet
facet normal 1.0 3.6612452661242445e-15 -5.4375306741107125e-14
  outer loop
    vertex 1141.2758007277057 1101.171175658042 102.00000003002911
    vertex 1141.2758007277052 1171.1711756580423 100.00000003002913
    vertex 1141.2758007277057 1167.171175658042 102.00000003002911
  endloop
endfacet
facet normal 1.0 3.6612452661242445e-15 -5.4375306741107125e-14
  outer loop
    vertex 1141.2758007277057 1167.171175658042 102.00000003002911
    vertex 1141.2758007277052 1171.1711756580423 100.00000003002913
    vertex 1141.2758007277052 1171.1711756580423 102.00000003002911
  endloop
endfacet
facet normal 0.0 0.0 1.0
  outer loop
    vertex 1141.2758007277057 1101.171175658042 102.00000003002911
    vertex 1137.0258007277055 1101.4211756580419 102.00000003002911
    vertex 1137.0258007277055 1101.171175658042 102.00000003002911
  endloop
endfacet
facet normal 0.0 0.0 1.0
  outer loop
    vertex 1137.0258007277055 1101.4211756580419 102.00000003002911
    vertex 1141.2758007277057 1101.171175658042 102.00000003002911
    vertex 1137.0258007277055 1166.921175658042 102.00000003002911
  endloop
endfacet
facet normal 0.0 0.0 1.0
  outer loop
    vertex 1137.0258007277055 1166.921175658042 102.00000003002911
    vertex 1141.2758007277057 1101.171175658042 102.00000003002911
    vertex 1137.0258007277055 1167.171175658042 102.00000003002911
  endloop
endfacet
facet normal 0.0 0.0 1.0
  outer loop
    vertex 1137.0258007277055 1167.171175658042 102.00000003002911
    vertex 1141.2758007277057 1101.171175658042 102.00000003002911
    vertex 1141.2758007277057 1167.171175658042 102.00000003002911
  endloop
endfacet
facet normal 0.0 0.0 1.0
  outer loop
    vertex 1141.2758007277057 1097.1711756580423 102.00000003002911
    vertex 1071.2758007277055 1101.4211756580419 102.00000003002911
    vertex 1071.2758007277055 1097.1711756580423 102.00000003002911
  endloop
endfacet
facet normal 0.0 0.0 1.0
  outer loop
    vertex 1071.2758007277055 1101.4211756580419 102.00000003002911
    vertex 1141.2758007277057 1097.1711756580423 102.00000003002911
    vertex 1071.5258007277055 1101.4211756580419 102.00000003002911
  endloop
endfacet
facet normal 0.0 0.0 1.0
  outer loop
    vertex 1071.5258007277055 1101.4211756580419 102.00000003002911
    vertex 1141.2758007277057 1097.1711756580423 102.00000003002911
    vertex 1137.0258007277055 1101.171175658042 102.00000003002911
  endloop
endfacet
facet normal 0.0 0.0 1.0
  outer loop
    vertex 1137.0258007277055 1101.171175658042 102.00000003002911
    vertex 1141.2758007277057 1097.1711756580423 102.00000003002911
    vertex 1141.2758007277057 1101.171175658042 102.00000003002911
  endloop
endfacet
facet normal 0.0 0.0 1.0
  outer loop
    vertex 1137.0258007277055 1101.4211756580419 102.00000003002911
    vertex 1071.5258007277055 1101.4211756580419 102.00000003002911
    vertex 1137.0258007277055 1101.171175658042 102.00000003002911
  endloop
endfacet
facet normal 1.6982958858287087e-62 -1.0 -5.111871913179736e-45
  outer loop
    vertex 1141.2758007277057 1097.1711756580423 102.00000003002911
    vertex 1067.2758007277057 1097.1711756580423 100.00000003002913
    vertex 1141.2758007277057 1097.1711756580423 100.00000003002913
  endloop
endfacet
facet normal 1.6982958858287087e-62 -1.0 -5.111871913179736e-45
  outer loop
    vertex 1067.2758007277057 1097.1711756580423 100.00000003002913
    vertex 1141.2758007277057 1097.1711756580423 102.00000003002911
    vertex 1067.2758007277057 1097.1711756580423 102.00000003002911
  endloop
endfacet
facet normal 1.6982958858287087e-62 -1.0 -5.111871913179736e-45
  outer loop
    vertex 1067.2758007277057 1097.1711756580423 102.00000003002911
    vertex 1141.2758007277057 1097.1711756580423 102.00000003002911
    vertex 1071.2758007277055 1097.1711756580423 102.00000003002911
  endloop
endfacet
facet normal 7.722801377375451e-17 -1.512910493370575e-30 -1.0
  outer loop
    vertex 1141.2758007277052 1171.1711756580423 100.00000003002913
    vertex 1067.2758007277057 1097.1711756580423 100.00000003002913
    vertex 1067.2758007277057 1171.1711756580423 100.00000003002913
  endloop
endfacet
facet normal 7.722801377375451e-17 -1.512910493370575e-30 -1.0
  outer loop
    vertex 1067.2758007277057 1097.1711756580423 100.00000003002913
    vertex 1141.2758007277052 1171.1711756580423 100.00000003002913
    vertex 1141.2758007277057 1097.1711756580423 100.00000003002913
  endloop
endfacet
facet normal -1.0 0.0 -6.869504964868158e-16
  outer loop
    vertex 1067.2758007277057 1167.171175658042 102.00000003002911
    vertex 1067.2758007277057 1097.1711756580423 100.00000003002913
    vertex 1067.2758007277057 1097.1711756580423 102.00000003002911
  endloop
endfacet
facet normal -1.0 0.0 -6.869504964868158e-16
  outer loop
    vertex 1067.2758007277057 1097.1711756580423 100.00000003002913
    vertex 1067.2758007277057 1167.171175658042 102.00000003002911
    vertex 1067.2758007277057 1171.1711756580423 100.00000003002913
  endloop
endfacet
facet normal -1.0 0.0 -6.869504964868158e-16
  outer loop
    vertex 1067.2758007277057 1171.1711756580423 100.00000003002913
    vertex 1067.2758007277057 1167.171175658042 102.00000003002911
    vertex 1067.2758007277057 1171.1711756580423 102.00000003002911
  endloop
endfacet
facet normal 0.0 0.0 1.0
  outer loop
    vertex 1071.2758007277055 1097.1711756580423 102.00000003002911
    vertex 1067.2758007277057 1167.171175658042 102.00000003002911
    vertex 1067.2758007277057 1097.1711756580423 102.00000003002911
  endloop
endfacet
facet normal 0.0 0.0 1.0
  outer loop
    vertex 1067.2758007277057 1167.171175658042 102.00000003002911
    vertex 1071.2758007277055 1097.1711756580423 102.00000003002911
    vertex 1071.2758007277055 1101.4211756580419 102.00000003002911
  endloop
endfacet
facet normal 0.0 0.0 1.0
  outer loop
    vertex 1067.2758007277057 1167.171175658042 102.00000003002911
    vertex 1071.2758007277055 1101.4211756580419 102.00000003002911
    vertex 1071.5258007277055 1167.171175658042 102.00000003002911
  endloop
endfacet
facet normal 0.0 0.0 1.0
  outer loop
    vertex 1071.5258007277055 1167.171175658042 102.00000003002911
    vertex 1071.2758007277055 1101.4211756580419 102.00000003002911
    vertex 1071.5258007277055 1101.4211756580419 102.00000003002911
  endloop
endfacet
facet normal 0.0 0.0 1.0
  outer loop
    vertex 1071.5258007277055 1167.171175658042 102.00000003002911
    vertex 1071.5258007277055 1101.4211756580419 102.00000003002911
    vertex 1071.5258007277055 1166.921175658042 102.00000003002911
  endloop
endfacet
facet normal -1.6982958858287087e-62 1.0 5.111871913179736e-45
  outer loop
    vertex 1067.2758007277057 1171.1711756580423 102.00000003002911
    vertex 1141.2758007277052 1171.1711756580423 100.00000003002913
    vertex 1067.2758007277057 1171.1711756580423 100.00000003002913
  endloop
endfacet
facet normal -1.6982958858287087e-62 1.0 5.111871913179736e-45
  outer loop
    vertex 1141.2758007277052 1171.1711756580423 100.00000003002913
    vertex 1067.2758007277057 1171.1711756580423 102.00000003002911
    vertex 1141.2758007277052 1171.1711756580423 102.00000003002911
  endloop
endfacet
facet normal 0.0 0.0 1.0
  outer loop
    vertex 1137.0258007277055 1166.921175658042 102.00000003002911
    vertex 1071.5258007277055 1167.171175658042 102.00000003002911
    vertex 1071.5258007277055 1166.921175658042 102.00000003002911
  endloop
endfacet
facet normal 0.0 0.0 1.0
  outer loop
    vertex 1071.5258007277055 1167.171175658042 102.00000003002911
    vertex 1067.2758007277057 1171.1711756580423 102.00000003002911
    vertex 1067.2758007277057 1167.171175658042 102.00000003002911
  endloop
endfacet
facet normal 0.0 0.0 1.0
  outer loop
    vertex 1067.2758007277057 1171.1711756580423 102.00000003002911
    vertex 1071.5258007277055 1167.171175658042 102.00000003002911
    vertex 1141.2758007277052 1171.1711756580423 102.00000003002911
  endloop
endfacet
facet normal 0.0 0.0 1.0
  outer loop
    vertex 1141.2758007277052 1171.1711756580423 102.00000003002911
    vertex 1071.5258007277055 1167.171175658042 102.00000003002911
    vertex 1137.0258007277055 1167.171175658042 102.00000003002911
  endloop
endfacet
facet normal 0.0 0.0 1.0
  outer loop
    vertex 1137.0258007277055 1167.171175658042 102.00000003002911
    vertex 1071.5258007277055 1167.171175658042 102.00000003002911
    vertex 1137.0258007277055 1166.921175658042 102.00000003002911
  endloop
endfacet
facet normal 0.0 0.0 1.0
  outer loop
    vertex 1141.2758007277052 1171.1711756580423 102.00000003002911
    vertex 1137.0258007277055 1167.171175658042 102.00000003002911
    vertex 1141.2758007277057 1167.171175658042 102.00000003002911
  endloop
endfacet
facet normal 0.0 0.0 -1.0
  outer loop
    vertex 1137.0258007277055 1166.921175658042 102.00000003002911
    vertex 1071.5258007277055 1101.4211756580419 102.00000003002911
    vertex 1071.5258007277055 1166.921175658042 102.00000003002911
  endloop
endfacet
facet normal 0.0 0.0 -1.0
  outer loop
    vertex 1071.5258007277055 1101.4211756580419 102.00000003002911
    vertex 1137.0258007277055 1166.921175658042 102.00000003002911
    vertex 1137.0258007277055 1101.4211756580419 102.00000003002911
  endloop
endfacet
facet normal -3.3222582933858218e-18 -5.1118719131797367e-45 1.0
  outer loop
    vertex 1137.0258007277055 1101.4211756580419 104.00000003002911
    vertex 1071.5258007277055 1166.921175658042 104.00000003002911
    vertex 1071.5258007277055 1101.4211756580419 104.00000003002911
  endloop
endfacet
facet normal -3.3222582933858218e-18 -5.1118719131797367e-45 1.0
  outer loop
    vertex 1071.5258007277055 1166.921175658042 104.00000003002911
    vertex 1137.0258007277055 1101.4211756580419 104.00000003002911
    vertex 1137.0258007277055 1166.921175658042 104.00000003002911
  endloop
endfacet
facet normal 1.0 0.0 0.0
  outer loop
    vertex 1137.0258007277055 1166.921175658042 102.00000003002911
    vertex 1137.0258007277055 1101.4211756580419 104.00000003002911
    vertex 1137.0258007277055 1101.4211756580419 102.00000003002911
  endloop
endfacet
facet normal 1.0 0.0 0.0
  outer loop
    vertex 1137.0258007277055 1101.4211756580419 104.00000003002911
    vertex 1137.0258007277055 1166.921175658042 102.00000003002911
    vertex 1137.0258007277055 1166.921175658042 104.00000003002911
  endloop
endfacet
facet normal 0.0 -1.0 0.0
  outer loop
    vertex 1137.0258007277055 1101.4211756580419 104.00000003002911
    vertex 1071.5258007277055 1101.4211756580419 102.00000003002911
    vertex 1137.0258007277055 1101.4211756580419 102.00000003002911
  endloop
endfacet
facet normal 0.0 -1.0 0.0
  outer loop
    vertex 1071.5258007277055 1101.4211756580419 102.00000003002911
    vertex 1137.0258007277055 1101.4211756580419 104.00000003002911
    vertex 1071.5258007277055 1101.4211756580419 104.00000003002911
  endloop
endfacet
facet normal -1.0 0.0 0.0
  outer loop
    vertex 1071.5258007277055 1166.921175658042 104.00000003002911
    vertex 1071.5258007277055 1101.4211756580419 102.00000003002911
    vertex 1071.5258007277055 1101.4211756580419 104.00000003002911
  endloop
endfacet
facet normal -1.0 0.0 0.0
  outer loop
    vertex 1071.5258007277055 1101.4211756580419 102.00000003002911
    vertex 1071.5258007277055 1166.921175658042 104.00000003002911
    vertex 1071.5258007277055 1166.921175658042 102.00000003002911
  endloop
endfacet
facet normal 0.0 1.0 0.0
  outer loop
    vertex 1071.5258007277055 1166.921175658042 104.00000003002911
    vertex 1137.0258007277055 1166.921175658042 102.00000003002911
    vertex 1071.5258007277055 1166.921175658042 102.00000003002911
  endloop
endfacet
facet normal 0.0 1.0 0.0
  outer loop
    vertex 1137.0258007277055 1166.921175658042 102.00000003002911
    vertex 1071.5258007277055 1166.921175658042 104.00000003002911
    vertex 1137.0258007277055 1166.921175658042 104.00000003002911
  endloop
endfacet
endsolid AutoSave_bht-002_box
